<svg xmlns="http://www.w3.org/2000/svg" xmlns:xlink="http://www.w3.org/1999/xlink" width="430.156" height="520.272" viewBox="0 0 430.156 520.272">
  <defs>
    <clipPath id="clip-path">
      <circle id="Ellipse_425" data-name="Ellipse 425" cx="159.5" cy="159.5" r="159.5" transform="translate(0.322 0.322)" fill="#fff" stroke="#707070" stroke-width="1"/>
    </clipPath>
    <linearGradient id="linear-gradient" x1="-6.52" y1="1.441" x2="-6.116" y2="-0.128" gradientUnits="objectBoundingBox">
      <stop offset="0.403" stop-color="#3c8ecd"/>
      <stop offset="0.994" stop-color="#82cef2"/>
    </linearGradient>
    <linearGradient id="linear-gradient-2" x1="-60.233" y1="1.441" x2="-59.829" y2="-0.128" gradientUnits="objectBoundingBox">
      <stop offset="0.403" stop-color="#c18dbe"/>
      <stop offset="1" stop-color="#9db4dd"/>
    </linearGradient>
    <linearGradient id="linear-gradient-3" x1="-47.692" y1="1.441" x2="-47.289" y2="-0.128" gradientUnits="objectBoundingBox">
      <stop offset="0.403" stop-color="#454494"/>
      <stop offset="1" stop-color="#76a1d6"/>
    </linearGradient>
    <linearGradient id="linear-gradient-4" x1="0.907" y1="0.162" x2="0.5" y2="1" gradientUnits="objectBoundingBox">
      <stop offset="0" stop-color="#80cded"/>
      <stop offset="0.569" stop-color="#56bdc1"/>
      <stop offset="1" stop-color="#59bec2"/>
      <stop offset="1" stop-color="#82cef2"/>
    </linearGradient>
    <linearGradient id="linear-gradient-5" x1="0.625" y1="1.735" x2="0.368" y2="0.223" gradientUnits="objectBoundingBox">
      <stop offset="0.006" stop-color="#13287a"/>
      <stop offset="1" stop-color="#1a3d8e"/>
    </linearGradient>
    <linearGradient id="linear-gradient-6" x1="0.221" y1="-0.195" x2="0.68" y2="1.363" gradientUnits="objectBoundingBox">
      <stop offset="0" stop-color="#466bb3"/>
      <stop offset="0.727" stop-color="#3c3079"/>
    </linearGradient>
    <linearGradient id="linear-gradient-7" x1="0.302" y1="1.276" x2="0.819" y2="-0.143" gradientUnits="objectBoundingBox">
      <stop offset="0.192" stop-color="#1972a0"/>
      <stop offset="1" stop-color="#3b9fd9"/>
    </linearGradient>
    <filter id="Path_1120" x="111.492" y="105.353" width="206.883" height="125.696" filterUnits="userSpaceOnUse">
      <feOffset dy="9" input="SourceAlpha"/>
      <feGaussianBlur stdDeviation="6.5" result="blur"/>
      <feFlood flood-opacity="0.161"/>
      <feComposite operator="in" in2="blur"/>
      <feComposite in="SourceGraphic"/>
    </filter>
  </defs>
  <g id="thanos_operator_vertical" transform="translate(20.293 -244.543)">
    <g id="Mask_Group_2" data-name="Mask Group 2" transform="translate(354.861 563.865) rotate(180)" clip-path="url(#clip-path)">
      <g id="Group_403" data-name="Group 403" transform="translate(-330.778 -214.718)">
        <path id="Path_291" data-name="Path 291" d="M789.854,0c316.66,0,308.72,455.842,0,455.842H0C456.56,455.842,470.686,0,789.854,0Z" transform="translate(202.275 79.153)" fill="url(#linear-gradient)"/>
        <path id="Path_292" data-name="Path 292" d="M199.835,0c-269.821,0-263.051,388.407,0,388.407H872.824C483.8,388.407,471.778,0,199.835,0Z" transform="translate(0 146.604)" fill="url(#linear-gradient-2)"/>
        <path id="Path_293" data-name="Path 293" d="M275.25,0c-371.641,0-362.33,534.928,0,534.928h927C666.4,534.995,649.833,0,275.25,0Z" transform="translate(111.091)" fill="url(#linear-gradient-3)"/>
        <path id="Path_294" data-name="Path 294" d="M573.376,0c229.9,0,224.134,330.987,0,330.987H0C331.5,330.938,341.735,0,573.376,0Z" transform="translate(741.95 204.058)" fill="url(#linear-gradient-4)"/>
        <path id="Path_295" data-name="Path 295" d="M911.483,298.055a557.206,557.206,0,0,1-125.14-58.207C682.1,174.8,607.728,83.314,534.827,0c-58.641,61.684-113.455,135.4-184.1,197.355A493.936,493.936,0,0,1,106.217,318.3,593.977,593.977,0,0,1,0,327.442H1111.061A645.883,645.883,0,0,1,911.483,298.055Z" transform="translate(202.292 207.569)" fill="url(#linear-gradient-5)"/>
        <path id="Path_296" data-name="Path 296" d="M693.568,384.1A429.9,429.9,0,0,1,441.935,258.327C324.251,145.44,255.162.007,88.749.007A236.881,236.881,0,0,0,21.683,9.168c-58.508,138.914,1.822,326.841,175.74,370.1a321.5,321.5,0,0,0,77.832,9.143h486.45a523.428,523.428,0,0,1-68.137-4.313Z" transform="translate(111.069 146.597)" fill="url(#linear-gradient-6)"/>
        <path id="Path_297" data-name="Path 297" d="M472.642,0C387.388,45.8,333.9,145.216,246.635,218.368A363,363,0,0,1,0,305.961H250.146a247.639,247.639,0,0,0,121.629-29.388C471.021,221.544,505.423,99.5,472.642,0Z" transform="translate(741.983 229.033)" fill="url(#linear-gradient-7)"/>
        <path id="Path_298" data-name="Path 298" d="M244.512,0A493.941,493.941,0,0,1,0,120.944a321.439,321.439,0,0,0,77.832,9.144H433.475a442.114,442.114,0,0,0,62.62-4.3A430,430,0,0,1,244.512,0Z" transform="translate(308.509 404.923)" fill="#0d185c"/>
        <path id="Path_299" data-name="Path 299" d="M184.015,0A355.276,355.276,0,0,1,0,83.281H0a522.325,522.325,0,0,0,68.186,4.3H187.509A247.649,247.649,0,0,0,309.138,58.19,556.677,556.677,0,0,1,184.015,0Z" transform="translate(804.604 447.4)" fill="#061e5c"/>
        <path id="Path_300" data-name="Path 300" d="M62.62,0A441.07,441.07,0,0,1,0,4.3H130.84A523.9,523.9,0,0,1,62.653,0Z" transform="translate(741.983 530.698)" fill="#040f42"/>
      </g>
    </g>
    <g transform="matrix(1, 0, 0, 1, -20.29, 244.54)" filter="url(#Path_1120)">
      <path id="Path_1120-2" data-name="Path 1120" d="M-29.22-38.293H-56.043V-54.1H17v15.806H-9.821V29.723h-19.4Zm95.2,69.453a48.926,48.926,0,0,1-23.53-5.628A41.771,41.771,0,0,1,26.043,10.025a42.334,42.334,0,0,1-5.927-22.213A42.334,42.334,0,0,1,26.043-34.4,41.771,41.771,0,0,1,42.448-49.908a48.926,48.926,0,0,1,23.53-5.628,48.578,48.578,0,0,1,23.47,5.628A42.312,42.312,0,0,1,105.853-34.4a42.011,42.011,0,0,1,5.987,22.213,42.011,42.011,0,0,1-5.987,22.213A42.312,42.312,0,0,1,89.448,25.532,48.578,48.578,0,0,1,65.978,31.16Zm0-16.525A26.6,26.6,0,0,0,79.39,11.222a24.49,24.49,0,0,0,9.4-9.52A27.985,27.985,0,0,0,92.2-12.188,27.985,27.985,0,0,0,88.79-26.079a24.49,24.49,0,0,0-9.4-9.52,26.6,26.6,0,0,0-13.412-3.413A26.6,26.6,0,0,0,52.566-35.6a24.49,24.49,0,0,0-9.4,9.52,27.985,27.985,0,0,0-3.413,13.891A27.985,27.985,0,0,0,43.166,1.7a24.49,24.49,0,0,0,9.4,9.52A26.6,26.6,0,0,0,65.978,14.635Z" transform="translate(187.03 171.39)" fill="#fff"/>
    </g>
    <g id="title" transform="translate(-346 192)">
      <path id="operator" d="M32.472.792a31.938,31.938,0,0,1-15.1-3.515A26.127,26.127,0,0,1,6.93-12.474,26.869,26.869,0,0,1,3.168-26.631,26.869,26.869,0,0,1,6.93-40.788,26.127,26.127,0,0,1,17.375-50.54a31.938,31.938,0,0,1,15.1-3.514A31.644,31.644,0,0,1,47.52-50.54a26.208,26.208,0,0,1,10.395,9.752,26.869,26.869,0,0,1,3.762,14.157,26.869,26.869,0,0,1-3.762,14.157A26.208,26.208,0,0,1,47.52-2.723,31.644,31.644,0,0,1,32.472.792Zm0-12.672a12.863,12.863,0,0,0,9.751-4.01q3.812-4.009,3.812-10.741T42.223-37.373a12.863,12.863,0,0,0-9.751-4.009,13.023,13.023,0,0,0-9.8,4.009q-3.861,4.01-3.861,10.742T22.671-15.89A13.023,13.023,0,0,0,32.472-11.88Zm69.3-42.174a27.143,27.143,0,0,1,13.513,3.416,24.525,24.525,0,0,1,9.554,9.6,28.992,28.992,0,0,1,3.465,14.4,28.992,28.992,0,0,1-3.465,14.4,24.525,24.525,0,0,1-9.554,9.6A27.143,27.143,0,0,1,101.772.792q-10.2,0-16.038-6.435V19.206H70.29V-53.262H85.041v6.138Q90.783-54.054,101.772-54.054ZM99.1-11.88a12.863,12.863,0,0,0,9.751-4.01q3.812-4.009,3.812-10.741T108.85-37.373A12.863,12.863,0,0,0,99.1-41.382a12.863,12.863,0,0,0-9.752,4.009q-3.812,4.01-3.812,10.742T89.347-15.89A12.863,12.863,0,0,0,99.1-11.88ZM189.09-26.433q0,.3-.3,4.158H148.5a12.549,12.549,0,0,0,5.148,7.821,17.051,17.051,0,0,0,10.1,2.871,20.448,20.448,0,0,0,7.376-1.238,17.864,17.864,0,0,0,5.989-3.911l8.217,8.91Q177.8.792,163.35.792a34.767,34.767,0,0,1-15.939-3.515,25.763,25.763,0,0,1-10.692-9.751,26.869,26.869,0,0,1-3.762-14.157,27.218,27.218,0,0,1,3.712-14.108,26.009,26.009,0,0,1,10.2-9.8,29.939,29.939,0,0,1,14.5-3.514,29.7,29.7,0,0,1,14.157,3.366,24.568,24.568,0,0,1,9.949,9.653A28.783,28.783,0,0,1,189.09-26.433ZM161.469-42.372a13.3,13.3,0,0,0-8.811,2.97,12.643,12.643,0,0,0-4.356,8.118h26.235a12.77,12.77,0,0,0-4.356-8.068A13.02,13.02,0,0,0,161.469-42.372Zm50.985-3.861a17.174,17.174,0,0,1,7.475-5.841,27.742,27.742,0,0,1,10.84-1.98V-39.8q-2.574-.2-3.465-.2-6.633,0-10.4,3.713t-3.762,11.138V0H197.7V-53.262h14.751Zm47.025-7.821q12.375,0,19.008,5.891t6.633,17.77V0H270.666V-6.633Q266.31.792,254.43.792a25.2,25.2,0,0,1-10.643-2.079,15.869,15.869,0,0,1-6.88-5.742,14.945,14.945,0,0,1-2.376-8.316,13.877,13.877,0,0,1,5.594-11.682q5.594-4.257,17.275-4.257h12.276q0-5.049-3.069-7.771T257.4-41.778a26.883,26.883,0,0,0-8.365,1.337,22.132,22.132,0,0,0-6.98,3.613l-5.544-10.791a33.451,33.451,0,0,1,10.444-4.752A46.787,46.787,0,0,1,259.479-54.054ZM258.291-9.6a13.45,13.45,0,0,0,7.029-1.832,10.022,10.022,0,0,0,4.356-5.4v-5.445H259.083q-9.5,0-9.5,6.237a5.554,5.554,0,0,0,2.327,4.7A10.48,10.48,0,0,0,258.291-9.6Zm73.458,7.029A15.874,15.874,0,0,1,326.156-.05a28.281,28.281,0,0,1-6.98.842q-9.5,0-14.7-4.851t-5.2-14.256V-40.194H291.06v-11.88h8.217V-65.043h15.444v12.969h13.266v11.88H314.721v21.681a7.271,7.271,0,0,0,1.732,5.2,6.421,6.421,0,0,0,4.9,1.832,9.926,9.926,0,0,0,6.237-1.98ZM362.439.792a31.938,31.938,0,0,1-15.1-3.515A26.126,26.126,0,0,1,336.9-12.474a26.869,26.869,0,0,1-3.762-14.157A26.869,26.869,0,0,1,336.9-40.788a26.126,26.126,0,0,1,10.445-9.752,31.938,31.938,0,0,1,15.1-3.514,31.644,31.644,0,0,1,15.048,3.514,26.208,26.208,0,0,1,10.4,9.752,26.869,26.869,0,0,1,3.762,14.157,26.869,26.869,0,0,1-3.762,14.157,26.208,26.208,0,0,1-10.4,9.751A31.644,31.644,0,0,1,362.439.792Zm0-12.672a12.863,12.863,0,0,0,9.751-4.01Q376-19.9,376-26.631t-3.811-10.742a12.863,12.863,0,0,0-9.751-4.009,13.023,13.023,0,0,0-9.8,4.009q-3.861,4.01-3.861,10.742t3.861,10.741A13.023,13.023,0,0,0,362.439-11.88Zm52.569-34.353a17.174,17.174,0,0,1,7.474-5.841,27.742,27.742,0,0,1,10.841-1.98V-39.8q-2.574-.2-3.465-.2-6.633,0-10.395,3.713T415.7-25.146V0H400.257V-53.262h14.751Z" transform="translate(322.539 540.543)" fill="#3e3c84"/>
      <path id="thanos" d="M41.481-2.574A15.875,15.875,0,0,1,35.888-.05a28.28,28.28,0,0,1-6.98.842q-9.5,0-14.7-4.851t-5.2-14.256V-40.194H.792v-11.88H9.009V-65.043H24.453v12.969H37.719v11.88H24.453v21.681a7.271,7.271,0,0,0,1.733,5.2,6.421,6.421,0,0,0,4.9,1.832,9.925,9.925,0,0,0,6.237-1.98Zm39.4-51.48q9.9,0,15.989,5.94t6.088,17.622V0H87.516V-28.116q0-6.336-2.772-9.454t-8.019-3.119a12.291,12.291,0,0,0-9.306,3.614q-3.465,3.614-3.465,10.742V0H48.51V-73.458H63.954v25.74a20.544,20.544,0,0,1,7.425-4.7A26.861,26.861,0,0,1,80.883-54.054Zm55.836,0q12.375,0,19.008,5.891t6.633,17.77V0H147.906V-6.633Q143.55.792,131.67.792a25.2,25.2,0,0,1-10.642-2.079,15.869,15.869,0,0,1-6.881-5.742,14.945,14.945,0,0,1-2.376-8.316,13.877,13.877,0,0,1,5.593-11.682q5.593-4.257,17.275-4.257h12.276q0-5.049-3.069-7.771t-9.207-2.722a26.883,26.883,0,0,0-8.365,1.337,22.132,22.132,0,0,0-6.98,3.613l-5.544-10.791A33.451,33.451,0,0,1,124.2-52.371,46.787,46.787,0,0,1,136.719-54.054ZM135.531-9.6a13.45,13.45,0,0,0,7.029-1.832,10.022,10.022,0,0,0,4.356-5.4v-5.445H136.323q-9.5,0-9.5,6.237a5.554,5.554,0,0,0,2.327,4.7A10.48,10.48,0,0,0,135.531-9.6Zm71.478-44.451q9.9,0,15.988,5.94t6.089,17.622V0H213.642V-28.116q0-6.336-2.772-9.454t-8.019-3.119a12.291,12.291,0,0,0-9.306,3.614q-3.465,3.614-3.465,10.742V0H174.636V-53.262h14.751v6.237a20.481,20.481,0,0,1,7.623-5.2A26.56,26.56,0,0,1,207.009-54.054ZM267.3.792a31.938,31.938,0,0,1-15.1-3.515,26.127,26.127,0,0,1-10.445-9.751A26.869,26.869,0,0,1,238-26.631a26.869,26.869,0,0,1,3.762-14.157A26.127,26.127,0,0,1,252.2-50.54a31.938,31.938,0,0,1,15.1-3.514,31.644,31.644,0,0,1,15.048,3.514,26.208,26.208,0,0,1,10.4,9.752,26.869,26.869,0,0,1,3.762,14.157,26.869,26.869,0,0,1-3.762,14.157,26.208,26.208,0,0,1-10.4,9.751A31.644,31.644,0,0,1,267.3.792Zm0-12.672a12.863,12.863,0,0,0,9.752-4.01q3.811-4.009,3.811-10.741t-3.811-10.742a12.863,12.863,0,0,0-9.752-4.009,13.023,13.023,0,0,0-9.8,4.009q-3.861,4.01-3.861,10.742T257.5-15.89A13.023,13.023,0,0,0,267.3-11.88ZM323.037.792A51.739,51.739,0,0,1,310.068-.842a33.884,33.884,0,0,1-10.1-4.109l5.148-11.088a32.4,32.4,0,0,0,8.613,3.713,36.1,36.1,0,0,0,9.9,1.435q9.8,0,9.8-4.851,0-2.277-2.673-3.267a39.592,39.592,0,0,0-8.217-1.683,79.271,79.271,0,0,1-10.791-2.277,16.742,16.742,0,0,1-7.375-4.554q-3.119-3.267-3.118-9.306a14.578,14.578,0,0,1,2.921-8.96,18.8,18.8,0,0,1,8.514-6.088,36.363,36.363,0,0,1,13.216-2.178,51.871,51.871,0,0,1,11.237,1.237A31.409,31.409,0,0,1,346.4-49.4l-5.148,10.989a30.733,30.733,0,0,0-15.345-3.96q-4.95,0-7.425,1.386t-2.475,3.564a3.538,3.538,0,0,0,2.673,3.465,47.321,47.321,0,0,0,8.514,1.881,91.136,91.136,0,0,1,10.692,2.326,16.062,16.062,0,0,1,7.227,4.5q3.069,3.267,3.069,9.108a14.065,14.065,0,0,1-2.97,8.811,18.959,18.959,0,0,1-8.663,5.99A38.593,38.593,0,0,1,323.037.792Z" transform="translate(366.539 463.543)" fill="#3e3c84"/>
      <g id="Group_404" data-name="Group 404" transform="translate(420.434 558.547)">
        <path id="Path_898" data-name="Path 898" d="M36.719,161.657c2.8,0,4.49,1.294,4.49,3.48a3.028,3.028,0,0,1-2.563,3.138,3.4,3.4,0,0,1,3.17,3.522c0,2.365-1.863,3.777-5,3.777H30.852V161.66h5.867Zm-4.276,6.008h4.19c1.873,0,2.966-.818,2.966-2.272,0-1.406-1.093-2.2-2.966-2.2h-4.19Zm0,6.4h4.19c2.272,0,3.589-.892,3.589-2.483,0-1.512-1.317-2.406-3.589-2.406h-4.19Z" transform="translate(-30.852 -161.5)" fill="#3e3c84"/>
        <path id="Path_899" data-name="Path 899" d="M44.116,175.574H42.547v-4.707l-5.388-9.21h1.649l4.509,7.257,4.458-7.257H49.4l-5.286,9.149v4.768Z" transform="translate(-17.004 -161.501)" fill="#3e3c84"/>
        <path id="Path_900" data-name="Path 900" d="M54.223,161.657c2.8,0,4.493,1.294,4.493,3.48a3.02,3.02,0,0,1-2.569,3.138,3.409,3.409,0,0,1,3.189,3.522c0,2.365-1.876,3.777-5.011,3.777H48.362V161.66h5.861Zm-4.269,6.008h4.193c1.866,0,2.959-.818,2.959-2.272,0-1.406-1.093-2.2-2.959-2.2H49.953Zm0,6.4h4.193c2.269,0,3.579-.892,3.579-2.483,0-1.512-1.31-2.406-3.579-2.406H49.953Z" transform="translate(7.594 -161.5)" fill="#3e3c84"/>
        <path id="Path_901" data-name="Path 901" d="M57.907,172.05l-1.55,3.522H54.67l6.241-13.914H62.56l6.222,13.914H67.05L65.5,172.05Zm3.774-8.58-3.1,7.059h6.244Z" transform="translate(21.444 -161.498)" fill="#3e3c84"/>
        <path id="Path_902" data-name="Path 902" d="M72.192,175.572,63.845,164.4v11.172H62.26V161.658H63.9l8.347,11.194V161.658h1.575v13.914Z" transform="translate(38.109 -161.498)" fill="#3e3c84"/>
        <path id="Path_903" data-name="Path 903" d="M71.386,174.06h9.328l-.022,1.512H69.3V174.3l9.226-11.111H69.564v-1.531H80.615v1.275Z" transform="translate(53.565 -161.498)" fill="#3e3c84"/>
        <path id="Path_904" data-name="Path 904" d="M78.884,172.05l-1.553,3.522H75.653l6.238-13.914h1.652l6.219,13.914H88.03l-1.547-3.522Zm3.784-8.58-3.106,7.059H85.8Z" transform="translate(67.516 -161.498)" fill="#3e3c84"/>
        <path id="Path_905" data-name="Path 905" d="M83.238,175.572V161.658h1.595v13.914Z" transform="translate(84.17 -161.498)" fill="#3e3c84"/>
        <path id="Path_906" data-name="Path 906" d="M100.419,164.155l-2.665,3.16a4.292,4.292,0,0,0-3.161-1.873,3.218,3.218,0,0,0,0,6.4,4.744,4.744,0,0,0,3.161-1.588l2.665,2.841a8.651,8.651,0,0,1-6.059,2.78,7.058,7.058,0,0,1-7.382-7.19c0-4.094,3.183-7.078,7.555-7.078A8.393,8.393,0,0,1,100.419,164.155Z" transform="translate(92.382 -161.608)" fill="#3e3c84"/>
        <path id="Path_907" data-name="Path 907" d="M104.381,171.748v3.835H93.963v-13.93h4.611v10.1Z" transform="translate(107.718 -161.509)" fill="#3e3c84"/>
        <path id="Path_908" data-name="Path 908" d="M115.175,168.706c0,4.132-3.221,7.171-7.654,7.171s-7.657-3.017-7.657-7.171c0-4.132,3.224-7.1,7.657-7.1S115.175,164.593,115.175,168.706Zm-10.571.022a3.146,3.146,0,0,0,2.978,3.317,3.06,3.06,0,0,0,2.863-3.317,3.023,3.023,0,0,0-2.863-3.282A3.1,3.1,0,0,0,104.6,168.728Z" transform="translate(120.677 -161.608)" fill="#3e3c84"/>
        <path id="Path_909" data-name="Path 909" d="M120.861,169.679c0,3.7-2.6,6.1-6.631,6.1-4.058,0-6.743-2.4-6.743-6.1v-8.027H112.1v8.027a2.154,2.154,0,0,0,2.147,2.269,2.053,2.053,0,0,0,2.007-2.269v-8.027h4.608Z" transform="translate(137.412 -161.511)" fill="#3e3c84"/>
        <path id="Path_910" data-name="Path 910" d="M120.945,161.652c4.589,0,7.571,2.723,7.571,6.957s-3.039,6.976-7.753,6.976H114.72v-13.93h6.225Zm-1.614,10.354h1.732c1.665,0,2.735-1.31,2.735-3.359,0-2.068-1.163-3.413-2.959-3.413h-1.512v6.772Z" transform="translate(153.294 -161.511)" fill="#3e3c84"/>
      </g>
    </g>
  </g>
</svg>
